<svg viewBox="0 0 512 512" xmlns="http://www.w3.org/2000/svg"><g fill="#f6bb42"><path d="m256 0c-141.484375 0-256 114.496094-256 256 0 141.484375 114.496094 256 256 256 141.484375 0 256-114.496094 256-256 0-141.484375-114.496094-256-256-256zm0 472c-50.976562 0-99.25-17.550781-137.941406-49.773438l44.496094-44.496093c12.296874 6.019531 24.199218 27.769531 58.609374 27.769531 41.632813 0 47.023438-30 69.667969-30h56.382813l46.726562 46.726562c-38.691406 32.222657-86.964844 49.773438-137.941406 49.773438zm38.859375-148.855469 12.355469 12.355469h-16.382813c-41.628906 0-47.03125 30-69.667969 30-13.609374 0-16.539062-6.742188-29.71875-16.660156l25.699219-25.699219c3.75-3.75 5.855469-8.835937 5.855469-14.140625v-173h66v173c0 5.304688 2.105469 10.390625 5.859375 14.144531zm127.367187 70.796875c-17.804687-17.804687-75.382812-75.382812-93.226562-93.226562v-184.714844c0-11.046875-8.953125-20-20-20h-106c-11.046875 0-20 8.953125-20 20v184.714844l-93.226562 93.226562c-32.222657-38.691406-49.773438-86.964844-49.773438-137.941406 0-119.378906 96.605469-216 216-216 119.378906 0 216 96.605469 216 216 0 50.976562-17.550781 99.25-49.773438 137.941406zm0 0"/></g></svg>
