<svg height="512pt" viewBox="-22 0 512 512" width="512pt" xmlns="http://www.w3.org/2000/svg"><path d="m382.773438 274.222656c-3.847657 13.1875-9.535157 25.597656-16.765626 36.9375-4.929687 7.726563-8.652343 16.101563-11.152343 24.835938-2.503907 8.726562-3.769531 17.824218-3.769531 26.996094v140.117187c0 4.90625-3.972657 8.890625-8.890626 8.890625h-131.980468c-4.90625 0-8.890625-3.984375-8.890625-8.890625v-49.28125l-26.0625 4.367187-22.152344 3.714844c-15.925781 0-28.839844-12.917968-28.839844-28.84375v-60.164062l-17.433593-.03125c-19.96875-.902344-33.1875-21.226563-26.765626-40.152344l26.351563-77.710938c-1.285156-7.695312-1.960937-15.59375-1.960937-23.652343 0-78.945313 64.222656-142.886719 143.269531-142.441407 5.882812.03125 11.683593.414063 17.378906 1.140626 69.097656 8.714843 122.5 66.421874 124.199219 137.855468.386718 16.164063-1.9375 31.746094-6.535156 46.3125zm0 0" fill="#ebe0da"/><g fill="#fdc202"><path d="m286.058594 319.71875c8.113281 0 14.679687-6.566406 14.679687-14.679688 0-8.105468-6.566406-14.683593-14.679687-14.683593h-25.898438v-43.449219h.011719c28.03125-6.640625 48.917969-31.808594 48.917969-61.886719s-20.875-55.277343-48.917969-61.910156c-4.722656-1.109375-9.640625-1.699219-14.691406-1.699219-35.128907 0-63.609375 28.480469-63.609375 63.609375 0 30.078125 20.875 55.257813 48.929687 61.886719v112.964844c0 11.503906 9.355469 20.863281 20.863281 20.863281h34.394532c8.113281 0 14.679687-6.566406 14.679687-14.671875 0-8.113281-6.566406-14.679688-14.679687-14.679688h-25.898438v-31.664062zm-22.453125-156.582031c0 10.023437-8.113281 18.136719-18.125 18.136719-10.023438 0-18.136719-8.113282-18.136719-18.136719 0-10.011719 8.113281-18.125 18.136719-18.125 10.011719 0 18.125 8.113281 18.125 18.125zm0 0"/><path d="m233.890625 0c-4.296875 0-7.78125 3.484375-7.78125 7.78125v45.652344c0 4.296875 3.484375 7.78125 7.78125 7.78125s7.78125-3.484375 7.78125-7.78125v-45.652344c0-4.296875-3.484375-7.78125-7.78125-7.78125zm0 0"/><path d="m108.320312 45.457031c-2.148437-3.722656-6.910156-4.996093-10.628906-2.847656-3.722656 2.148437-4.996094 6.910156-2.847656 10.628906l22.824219 39.535157c1.441406 2.496093 4.058593 3.890624 6.746093 3.890624 1.320313 0 2.660157-.335937 3.882813-1.042968 3.722656-2.148438 4.996094-6.90625 2.847656-10.628906zm0 0"/><path d="m51.207031 167.589844-39.535156-22.824219c-3.722656-2.148437-8.480469-.875-10.628906 2.847656-2.148438 3.722657-.871094 8.480469 2.847656 10.628907l39.535156 22.824218c1.226563.707032 2.5625 1.042969 3.882813 1.042969 2.691406 0 5.304687-1.394531 6.746094-3.890625 2.148437-3.722656.875-8.480469-2.847657-10.628906zm0 0"/><path d="m370.089844 42.609375c-3.722656-2.148437-8.480469-.875-10.628906 2.847656l-22.824219 39.535157c-2.148438 3.722656-.875 8.480468 2.847656 10.628906 1.226563.707031 2.5625 1.042968 3.882813 1.042968 2.691406 0 5.304687-1.394531 6.746093-3.890624l22.824219-39.535157c2.152344-3.71875.875-8.476562-2.847656-10.628906zm0 0"/><path d="m466.738281 147.613281c-2.148437-3.722656-6.910156-4.996093-10.628906-2.847656l-39.535156 22.824219c-3.71875 2.148437-4.996094 6.90625-2.847657 10.628906 1.441407 2.496094 4.058594 3.890625 6.746094 3.890625 1.320313 0 2.660156-.335937 3.882813-1.042969l39.535156-22.824218c3.71875-2.148438 4.996094-6.90625 2.847656-10.628907zm0 0"/></g><path d="m140.773438 231.347656c0 8.074219.675781 15.957032 1.960937 23.667969l-26.351563 77.699219c-6.421874 18.921875 6.796876 39.257812 26.765626 40.160156l17.433593.019531v60.167969c0 10.789062 5.914063 20.179688 14.679688 25.128906l-22.152344 3.710938c-15.925781 0-28.839844-12.90625-28.839844-28.839844v-60.167969l-17.433593-.019531c-19.96875-.902344-33.1875-21.238281-26.765626-40.160156l26.351563-77.699219c-1.285156-7.710937-1.960937-15.59375-1.960937-23.667969 0-78.941406 64.222656-142.875 143.269531-142.4375 5.882812.03125 11.683593.414063 17.378906 1.152344-70.113281 8.878906-124.335937 68.753906-124.335937 141.285156zm0 0" fill="#d8cecc"/><path d="m260.171875 359.863281v-8.484375h-.011719v-31.664062h.011719v-29.363282h-.011719v-43.449218c-28.03125-6.640625-48.917968-31.800782-48.917968-61.886719 0-30.078125 20.875-55.269531 48.929687-61.910156-4.722656-1.109375-9.640625-1.691407-14.691406-1.691407-35.128907 0-63.609375 28.46875-63.609375 63.601563 0 30.085937 20.875 55.253906 48.929687 61.886719v112.960937c0 11.507813 9.355469 20.867188 20.863281 20.867188h29.382813c-11.507813 0-20.875-9.359375-20.875-20.867188zm0 0" fill="#f0a70a"/></svg>