<svg height="512pt" viewBox="0 0 512 512" width="512pt" xmlns="http://www.w3.org/2000/svg"><path d="m149.984375 149.984375-6.484375-36.484375-67.730469-37.730469c-46.171875 46.175781-75.769531 109.925781-75.769531 180.230469l59.125 30 46.875-30c0-41.351562 16.824219-78.851562 43.984375-106.015625zm0 0" fill="#ff9f00"/><path d="m149.984375 362.015625c-27.160156-27.164063-43.984375-64.664063-43.984375-106.015625h-106c0 70.304688 29.597656 134.054688 75.769531 180.230469l66.792969-6.792969zm0 0" fill="#fdbf00"/><path d="m256 406c-41.351562 0-78.851562-16.824219-106.015625-43.984375l-74.210937 74.210937c46.171874 46.175782 109.921874 75.773438 180.226562 75.773438l30-54.4375zm0 0" fill="#b5baf3"/><path d="m256 406v106c70.304688 0 134.054688-29.597656 180.230469-75.769531l-7.730469-67.730469-66.484375-6.484375c-27.164063 27.160156-64.664063 43.984375-106.015625 43.984375zm0 0" fill="#7984eb"/><path d="m362.015625 362.015625 74.210937 74.210937c46.175782-46.171874 75.773438-109.921874 75.773438-180.226562l-60.0625-30-45.9375 30c0 41.351562-16.824219 78.851562-43.984375 106.015625zm0 0" fill="#a8d32a"/><path d="m406 256h106c0-70.304688-29.597656-134.054688-75.769531-180.230469l-62.574219 2.574219-11.640625 71.640625c27.160156 27.164063 43.984375 64.664063 43.984375 106.015625zm0 0" fill="#81a713"/><path d="m256 106c41.351562 0 78.851562 16.824219 106.015625 43.984375l74.210937-74.210937c-46.171874-46.175782-109.921874-75.773438-180.226562-75.773438l-30 48.8125zm0 0" fill="#a8d32a"/><path d="m256 106v-106c-70.304688 0-134.054688 29.597656-180.230469 75.769531l74.214844 74.214844c27.164063-27.160156 64.664063-43.984375 106.015625-43.984375zm0 0" fill="#fdbf00"/><path d="m421 256c0 57.898438-30 108.601562-75 138v-3h-180v3c-45-29.398438-75-80.101562-75-138 0-90.902344 74.097656-165 165-165s165 74.097656 165 165zm0 0" fill="#ececf1"/><path d="m421 256c0 57.898438-30 108.601562-75 138v-3h-90v-300c90.902344 0 165 74.097656 165 165zm0 0" fill="#e2e2e7"/><path d="m346 391v3c-25.800781 17.097656-56.699219 27-90 27s-64.199219-9.902344-90-27v-3c0-49.800781 40.199219-90 90-90s90 40.199219 90 90zm0 0" fill="#ec5569"/><path d="m256 181c-33 0-60 27-60 60s27 60 60 60 60-27 60-60-27-60-60-60zm0 0" fill="#ec5569"/><g fill="#cc2e43"><path d="m256 301v-120c33 0 60 27 60 60s-27 60-60 60zm0 0"/><path d="m346 391v3c-25.800781 17.097656-56.699219 27-90 27v-120c49.800781 0 90 40.199219 90 90zm0 0"/></g></svg>