<svg viewBox="0 0 512 512" xmlns="http://www.w3.org/2000/svg"><path d="M256 0C114.516 0 0 114.496 0 256c0 141.484 114.496 256 256 256 141.484 0 256-114.496 256-256C512 114.516 397.504 0 256 0zm0 472c-50.977 0-99.25-17.55-137.941-49.773l44.496-44.497c12.297 6.02 24.199 27.77 58.61 27.77 41.632 0 47.023-30 69.667-30h56.383l46.726 46.727C355.25 454.449 306.977 472 256 472zm38.86-148.855l12.355 12.355h-16.383c-41.629 0-47.031 30-69.668 30-13.61 0-16.539-6.742-29.719-16.66l25.7-25.7A19.995 19.995 0 0 0 223 309V136h66v173c0 5.305 2.105 10.39 5.86 14.145zm127.367 70.796L329 300.715V116c0-11.047-8.953-20-20-20H203c-11.047 0-20 8.953-20 20v184.715L89.773 393.94C57.551 355.25 40 306.977 40 256c0-119.379 96.605-216 216-216 119.379 0 216 96.605 216 216 0 50.977-17.55 99.25-49.773 137.941zm0 0"/></svg>