<svg xmlns="http://www.w3.org/2000/svg" viewBox="0 0 512 512"><path d="M66 0v512h380V0H66zm350 482H96V30h320v452z" fill="#37bc9b"/><path d="M138.67 272.5h234.67v30H138.67zm0 64h234.67v30H138.67zm0 64h234.67v30H138.67zm170.66-254.99h64v30h-64zm0 64h64v30h-64zm0-126.99h64v30h-64zm-62.376 82.377c7.843-8.856 12.619-20.488 12.619-33.221 0-27.665-22.507-50.173-50.173-50.173s-50.173 22.508-50.173 50.173c0 12.732 4.776 24.365 12.619 33.221-19.77 12.5-32.937 34.54-32.937 59.61v15h140.982v-15c0-25.07-13.167-47.11-32.937-59.61zm-37.555-53.395c11.124 0 20.173 9.05 20.173 20.173 0 11.124-9.05 20.173-20.173 20.173-11.123 0-20.173-9.05-20.173-20.173s9.05-20.173 20.173-20.173zm-37.612 98.005c5.974-14.922 20.583-25.491 37.612-25.491 17.03 0 31.639 10.568 37.611 25.491h-75.223z" fill="#37bc9b"/></svg>