<svg height="512pt" viewBox="-22 0 512 512" width="512pt" xmlns="http://www.w3.org/2000/svg"><path d="M382.773 274.223a143.403 143.403 0 0 1-16.765 36.937c-4.93 7.727-8.653 16.102-11.153 24.836a97.963 97.963 0 0 0-3.77 26.996V503.11a8.888 8.888 0 0 1-8.89 8.891h-131.98c-4.906 0-8.89-3.984-8.89-8.89v-49.282l-26.063 4.367-22.153 3.715c-15.925 0-28.84-12.918-28.84-28.844v-60.164l-17.433-.03c-19.969-.903-33.188-21.227-26.766-40.153l26.352-77.711a143.48 143.48 0 0 1-1.961-23.653c0-78.945 64.223-142.886 143.27-142.44a143.32 143.32 0 0 1 17.378 1.14c69.098 8.715 122.5 66.422 124.2 137.855.386 16.164-1.938 31.746-6.536 46.313zm0 0" fill="#ebe0da"/><path d="M286.059 319.719c8.113 0 14.68-6.567 14.68-14.68 0-8.105-6.567-14.684-14.68-14.684H260.16v-43.449h.012c28.031-6.64 48.918-31.808 48.918-61.886s-20.875-55.278-48.918-61.91a64.177 64.177 0 0 0-14.692-1.7c-35.128 0-63.609 28.48-63.609 63.61 0 30.078 20.875 55.257 48.93 61.886v112.965c0 11.504 9.355 20.863 20.863 20.863h34.395c8.113 0 14.68-6.566 14.68-14.671 0-8.114-6.567-14.68-14.68-14.68H260.16v-31.664zm-22.454-156.582c0 10.023-8.113 18.136-18.125 18.136-10.023 0-18.136-8.113-18.136-18.136 0-10.012 8.113-18.125 18.136-18.125 10.012 0 18.125 8.113 18.125 18.125zM233.89 0a7.782 7.782 0 0 0-7.78 7.781v45.653a7.782 7.782 0 0 0 15.562 0V7.78A7.782 7.782 0 0 0 233.89 0zM108.32 45.457a7.78 7.78 0 0 0-10.629-2.848 7.78 7.78 0 0 0-2.847 10.63l22.824 39.534a7.78 7.78 0 0 0 10.629 2.848 7.78 7.78 0 0 0 2.848-10.629zM51.207 167.59l-39.535-22.824a7.78 7.78 0 0 0-10.629 2.847 7.783 7.783 0 0 0 2.848 10.63l39.535 22.823a7.775 7.775 0 0 0 10.629-2.848 7.78 7.78 0 0 0-2.848-10.628zM370.09 42.61a7.78 7.78 0 0 0-10.63 2.847l-22.823 39.535a7.78 7.78 0 0 0 6.73 11.672 7.775 7.775 0 0 0 6.746-3.89l22.825-39.536c2.152-3.718.875-8.476-2.848-10.629zm96.648 105.003a7.78 7.78 0 0 0-10.629-2.847l-39.535 22.824a7.783 7.783 0 0 0-2.847 10.629 7.78 7.78 0 0 0 10.628 2.847l39.536-22.824a7.783 7.783 0 0 0 2.847-10.629zm0 0" fill="#fdc202"/><path d="M140.773 231.348c0 8.074.676 15.957 1.961 23.668l-26.351 77.699c-6.422 18.922 6.797 39.258 26.765 40.16l17.434.02v60.167c0 10.79 5.914 20.18 14.68 25.13l-22.153 3.71c-15.925 0-28.84-12.906-28.84-28.84v-60.167l-17.433-.02c-19.969-.902-33.188-21.238-26.766-40.16l26.352-77.7a143.669 143.669 0 0 1-1.961-23.667c0-78.942 64.223-142.875 143.27-142.438 5.882.031 11.683.414 17.378 1.153-70.113 8.878-124.336 68.753-124.336 141.285zm0 0" fill="#d8cecc"/><path d="M260.172 359.863v-8.484h-.012v-31.664h.012v-29.363h-.012v-43.45c-28.031-6.64-48.918-31.8-48.918-61.886 0-30.079 20.875-55.27 48.93-61.91a64.175 64.175 0 0 0-14.692-1.692c-35.128 0-63.609 28.469-63.609 63.602 0 30.086 20.875 55.254 48.93 61.886v112.961c0 11.508 9.355 20.867 20.863 20.867h29.383c-11.508 0-20.875-9.359-20.875-20.867zm0 0" fill="#f0a70a"/></svg>