<svg height="512pt" viewBox="0 0 512 512" width="512pt" xmlns="http://www.w3.org/2000/svg"><path d="M149.984 149.984L143.5 113.5 75.77 75.77C29.598 121.945 0 185.695 0 256l59.125 30L106 256c0-41.352 16.824-78.852 43.984-106.016zm0 0" fill="#ff9f00"/><path d="M149.984 362.016C122.824 334.852 106 297.352 106 256H0c0 70.305 29.598 134.055 75.77 180.23l66.793-6.793zm0 0" fill="#fdbf00"/><path d="M256 406c-41.352 0-78.852-16.824-106.016-43.984l-74.21 74.21C121.944 482.403 185.694 512 256 512l30-54.438zm0 0" fill="#b5baf3"/><path d="M256 406v106c70.305 0 134.055-29.598 180.23-75.77l-7.73-67.73-66.484-6.484C334.852 389.176 297.352 406 256 406zm0 0" fill="#7984eb"/><path d="M362.016 362.016l74.21 74.21C482.403 390.056 512 326.306 512 256l-60.063-30L406 256c0 41.352-16.824 78.852-43.984 106.016zm0 0" fill="#a8d32a"/><path d="M406 256h106c0-70.305-29.598-134.055-75.77-180.23l-62.574 2.574-11.64 71.64C389.176 177.148 406 214.648 406 256zm0 0" fill="#81a713"/><path d="M256 106c41.352 0 78.852 16.824 106.016 43.984l74.21-74.21C390.056 29.597 326.306 0 256 0l-30 48.813zm0 0" fill="#a8d32a"/><path d="M256 106V0C185.695 0 121.945 29.598 75.77 75.77l74.214 74.214C177.148 122.824 214.648 106 256 106zm0 0" fill="#fdbf00"/><path d="M421 256c0 57.898-30 108.602-75 138v-3H166v3c-45-29.398-75-80.102-75-138 0-90.902 74.098-165 165-165s165 74.098 165 165zm0 0" fill="#ececf1"/><path d="M421 256c0 57.898-30 108.602-75 138v-3h-90V91c90.902 0 165 74.098 165 165zm0 0" fill="#e2e2e7"/><path d="M346 391v3c-25.8 17.098-56.7 27-90 27s-64.2-9.902-90-27v-3c0-49.8 40.2-90 90-90s90 40.2 90 90zm-90-210c-33 0-60 27-60 60s27 60 60 60 60-27 60-60-27-60-60-60zm0 0" fill="#ec5569"/><path d="M256 301V181c33 0 60 27 60 60s-27 60-60 60zm90 90v3c-25.8 17.098-56.7 27-90 27V301c49.8 0 90 40.2 90 90zm0 0" fill="#cc2e43"/></svg>