<svg xmlns="http://www.w3.org/2000/svg" viewBox="0 0 512 512"><g fill="#fff"><path d="M496.64 300.373c2.56-14.507 4.267-29.013 4.267-43.52 0-133.973-109.227-243.2-243.2-243.2-14.507 0-29.013 1.707-43.52 4.267C192.853 5.973 168.96 0 144.213 0 64.853 0 0 64.853 0 144.213c0 23.893 5.973 48.64 17.92 69.973-2.56 14.507-4.267 29.013-4.267 43.52 0 133.973 109.227 243.2 243.2 243.2 14.507 0 29.013-1.707 43.52-4.267 18.773 10.24 41.813 15.36 69.973 15.36C449.707 512 512 449.707 512 370.347c0-28.16-5.12-51.2-15.36-69.974zm-126.293 194.56c-26.453 0-46.933-5.12-64-14.507l-2.56-1.707-3.413.853c-14.507 2.56-29.013 4.267-43.52 4.267-124.587 0-226.133-101.547-226.133-226.133 0-14.507 1.707-29.013 4.267-43.52l.853-3.413-1.707-2.56c-11.093-19.627-17.067-41.813-17.067-64 0-69.973 57.173-127.147 127.147-127.147 22.187 0 44.373 5.973 64 17.067l2.56 1.707 3.413-.853c14.507-2.56 29.013-4.267 43.52-4.267 124.587 0 226.133 101.547 226.133 226.133 0 14.507-1.707 29.013-4.267 43.52l-.853 3.413 1.707 2.56c9.387 17.067 14.507 37.547 14.507 64-.001 69.974-54.614 124.587-124.587 124.587z"/><path d="M278.187 215.04c-64-12.8-73.387-29.013-74.24-33.28-1.707-5.973 2.56-11.093 6.827-14.507 11.093-9.387 37.547-17.067 60.587-12.8 8.533 1.707 20.48 5.973 26.453 16.213 14.507 28.16 29.867 50.347 61.44 42.667 10.24-2.56 17.92-9.387 23.04-19.627 5.973-13.653 5.973-32.427-1.707-46.933-8.533-16.213-45.227-58.027-116.907-58.027-68.267 0-146.773 24.747-146.773 94.72 0 55.467 48.64 94.72 133.12 106.667 42.667 5.973 56.32 19.627 60.587 27.307 2.56 5.12 2.56 10.24.853 15.36-6.827 16.213-29.867 31.573-65.707 28.16-40.96-4.267-54.613-40.96-57.173-48.64-6.827-21.333-29.867-24.747-41.813-23.893-5.973.853-19.627 5.12-28.16 17.92-5.12 7.68-10.24 22.187-2.56 44.373 9.387 29.013 40.96 76.8 145.92 76.8 87.893 0 140.8-55.467 141.653-106.667 0-56.32-38.4-88.746-125.44-105.813zM261.12 410.453c-69.973 0-116.053-23.04-129.707-64.853-4.267-12.8-4.267-23.04.853-29.867s12.8-10.24 16.213-10.24h2.56c5.12 0 17.92.853 19.627 11.093 3.413 9.387 20.48 55.467 71.68 60.587 45.227 4.267 74.24-17.067 83.627-39.253 4.267-10.24 3.413-21.333-1.707-30.72-6.827-12.8-25.6-29.013-72.533-35.84-44.373-6.827-118.613-26.453-118.613-89.6 0-57.173 69.973-77.653 129.707-77.653 63.147 0 94.72 34.987 101.547 48.64 4.267 9.387 5.12 23.04.853 32.427-2.56 5.973-6.827 9.387-11.947 10.24-15.36 3.413-24.747 0-42.667-34.133-6.827-12.8-20.48-21.333-38.4-24.747-26.453-4.267-58.88 2.56-75.093 17.067-10.24 9.387-14.507 20.48-11.947 31.573 5.973 20.48 34.133 34.987 87.893 45.227 98.133 19.627 111.787 55.467 111.787 88.747 0 44.372-46.08 91.305-123.733 91.305z"/></g></svg>